<svg width="350" height="260" viewBox="0 0 350 260" fill="none" xmlns="http://www.w3.org/2000/svg">
  <!-- 主卡片背景 -->
  <rect x="10" y="10" width="330" height="180" rx="14" fill="#fff" stroke="#e5e6eb" stroke-width="1.5"/>
  <!-- 表头 -->
  <rect x="10" y="10" width="330" height="36" rx="14" fill="#f5f7fa"/>
  <text x="40" y="34" font-size="15" font-family="Inter,Arial" fill="#1d2129" font-weight="bold">版本号</text>
  <text x="120" y="34" font-size="15" font-family="Inter,Arial" fill="#1d2129" font-weight="bold">时间</text>
  <text x="230" y="34" font-size="15" font-family="Inter,Arial" fill="#1d2129" font-weight="bold">操作</text>
  <!-- 分割线 -->
  <line x1="10" y1="46" x2="340" y2="46" stroke="#e5e6eb" stroke-width="1"/>
  <!-- 第一行 -->
  <text x="40" y="72" font-size="14" font-family="Inter,Arial" fill="#1d2129">v1.2</text>
  <text x="120" y="72" font-size="14" font-family="Inter,Arial" fill="#1d2129">2024-06-02</text>
  <rect x="220" y="58" width="56" height="22" rx="6" fill="#1677ff"/>
  <text x="248" y="74" text-anchor="middle" font-size="13" font-family="Inter,Arial" fill="#fff" font-weight="bold">对比</text>
  <!-- 第二行 -->
  <text x="40" y="102" font-size="14" font-family="Inter,Arial" fill="#1d2129">v1.1</text>
  <text x="120" y="102" font-size="14" font-family="Inter,Arial" fill="#1d2129">2024-06-01</text>
  <rect x="220" y="88" width="56" height="22" rx="6" fill="#1677ff"/>
  <text x="248" y="104" text-anchor="middle" font-size="13" font-family="Inter,Arial" fill="#fff" font-weight="bold">对比</text>
  <!-- 第三行 -->
  <text x="40" y="132" font-size="14" font-family="Inter,Arial" fill="#1d2129">v1.0</text>
  <text x="120" y="132" font-size="14" font-family="Inter,Arial" fill="#1d2129">2024-05-31</text>
  <rect x="220" y="118" width="56" height="22" rx="6" fill="#faad14"/>
  <text x="248" y="134" text-anchor="middle" font-size="13" font-family="Inter,Arial" fill="#fff" font-weight="bold">回滚</text>
  <!-- diff对比结果展示区 -->
  <rect x="10" y="170" width="330" height="60" rx="10" fill="#f5f7fa" stroke="#e5e6eb" stroke-width="1"/>
  <text x="30" y="200" font-size="14" font-family="Inter,Arial" fill="#bfbfbf">diff对比结果展示区</text>
</svg>
